<svg width="196" height="196" viewBox="0 0 196 196" fill="none" xmlns="http://www.w3.org/2000/svg">
<g clip-path="url(#clip0_7_16)">
<rect x="16.8438" y="16.8438" width="162.312" height="162.312" rx="6.50781" fill="black"/>
<path d="M60.1763 57.9384C59.1794 57.9384 58.2573 58.4368 57.4099 59.4337V122.688C57.4099 126.974 57.6591 130.414 58.1576 133.005C58.656 135.597 59.7776 138.189 61.5222 140.781C64.9116 145.666 72.6128 148.109 84.6255 148.109V152.52C84.1769 152.52 80.4136 153.916 73.3355 156.707C66.2575 159.548 61.9708 160.969 60.4754 160.969C57.9333 160.969 55.3912 160.171 52.8491 158.576C50.3069 156.981 47.9891 154.863 45.8956 152.221C43.8021 149.529 42.1323 146.563 40.8862 143.323C39.64 140.084 39.017 136.819 39.017 133.529V57.1159C39.017 56.8168 40.1634 56.1688 42.4563 55.1719C44.799 54.1252 47.715 52.9289 51.2042 51.5831C54.7432 50.2372 58.3321 48.9163 61.9708 47.6204C65.6095 46.2745 68.7996 45.1779 71.5411 44.3306C74.2826 43.4832 76.0022 43.0595 76.7001 43.0595C77.1487 43.0595 77.6471 43.882 78.1954 45.5269C78.7936 47.1718 79.3917 49.1905 79.9899 51.5831C80.588 53.9258 81.1612 56.1439 81.7095 58.2374C82.7563 62.4244 83.8529 65.5149 84.9993 67.5087C86.1956 69.5025 88.4387 70.4994 91.7285 70.4994V73.5649C89.4356 74.5119 85.6224 76.3064 80.2889 78.9482C74.8558 81.59 71.9648 82.9109 71.6158 82.9109C70.1205 82.9109 68.2014 78.7488 65.8587 70.4246C63.4661 62.1004 61.572 57.9384 60.1763 57.9384Z" fill="white"/>
<path d="M93.4511 130.952V43.0991C93.4511 42.8 94.5976 42.1271 96.8904 41.0804C99.2332 40.0336 102.149 38.8373 105.638 37.4915C109.127 36.1457 112.691 34.8248 116.33 33.5288C119.969 32.2328 123.134 31.1612 125.826 30.3138C128.567 29.4166 130.287 28.968 130.985 28.968C131.832 28.968 132.978 29.5661 134.424 30.7624C135.87 31.9088 137.34 33.4042 138.835 35.2485C140.331 37.0928 141.577 39.0367 142.574 41.0804C143.62 43.0742 144.144 44.9185 144.144 46.6132V86.6889H151.621V90.3525L144.144 94.2405V123.923C144.144 129.556 146.586 132.871 151.471 133.868V137.232L134.798 146.578C132.555 145.681 130.461 144.186 128.517 142.092C126.573 139.999 125.601 138.03 125.601 136.185V94.2405H111.844V123.026C111.844 126.765 112.243 129.456 113.04 131.101C113.838 132.746 115.533 133.568 118.125 133.568V138.279L86.722 151.513L84.2546 146.578C86.4977 146.578 88.641 145.257 90.6847 142.615C92.529 140.123 93.4511 136.235 93.4511 130.952ZM117.826 43.2487C115.782 43.2487 113.788 43.9963 111.844 45.4917V90.6516L120.816 86.6889H125.601V54.5386C125.601 47.012 123.009 43.2487 117.826 43.2487Z" fill="white"/>
</g>
<defs>
<clipPath id="clip0_7_16">
<rect width="196" height="196" fill="white"/>
</clipPath>
</defs>
</svg>
